<?xml version="1.0" encoding="utf-8"?>
<!-- Generator: Adobe Illustrator 24.2.3, SVG Export Plug-In . SVG Version: 6.00 Build 0)  -->
<svg version="1.1" xmlns="http://www.w3.org/2000/svg" xmlns:xlink="http://www.w3.org/1999/xlink" x="0px" y="0px"
	 viewBox="0 0 750 500" style="enable-background:new 0 0 750 500;" xml:space="preserve">
<style type="text/css">
	.st0{display:none;}
	.st1{display:inline;fill:#FFFFFF;}
	.st2{fill:none;stroke:#C0CCD8;stroke-width:1.2877;stroke-miterlimit:10;}
	.st3{fill:none;stroke:#C0CCD8;stroke-width:1.2877;stroke-linejoin:round;stroke-miterlimit:10;}
	.st4{fill:none;stroke:#C0CCD8;stroke-width:3.8632;stroke-miterlimit:10;}
	.st5{fill:#FFFFFF;stroke:#C0CCD8;stroke-width:1.2877;stroke-linejoin:round;stroke-miterlimit:10;}
	.st6{fill:#F76652;}
	.st7{fill:#C0CCD8;}
	.st8{fill:none;stroke:#C0CCD8;stroke-width:1.2877;stroke-linecap:round;stroke-linejoin:round;stroke-miterlimit:10;}
	.st9{fill:#475577;}
	.st10{fill:#717A91;}
	.st11{fill:none;stroke:#544943;stroke-width:1.9316;stroke-miterlimit:10;}
	.st12{opacity:0.45;}
	.st13{fill:#8E9DB2;}
	.st14{fill:#FFCBBB;}
	.st15{fill:#E6E8EF;}
	.st16{fill:#B9B5B2;}
	.st17{fill:none;stroke:#846A6A;stroke-width:1.2877;stroke-miterlimit:10;}
	.st18{fill:#173789;}
	.st19{fill:#FCA32D;}
	.st20{fill:none;stroke:#CE680D;stroke-width:1.2877;stroke-miterlimit:10;}
	.st21{fill:#FFB548;}
	.st22{fill:none;stroke:#ED841B;stroke-width:1.2877;stroke-miterlimit:10;}
	.st23{fill:none;stroke:#ED841B;stroke-width:1.2877;stroke-miterlimit:10;stroke-dasharray:3.8632,2.5755;}
	.st24{fill:#E6E8EF;stroke:#846A6A;stroke-width:1.2877;stroke-linejoin:round;stroke-miterlimit:10;}
	.st25{fill:#FFFFFF;}
	.st26{fill:none;stroke:#EF977F;stroke-width:1.2877;stroke-miterlimit:10;}
	.st27{fill:#8EBCA2;}
	.st28{fill:#A2CCB6;}
	.st29{fill:#597F6E;}
	.st30{fill:#F2F5F9;}
	.st31{fill:#E7EAF2;}
	.st32{opacity:0.45;fill:#8E9DB2;}
	.st33{fill:#C6D2E0;}
	.st34{opacity:0.65;}
	.st35{opacity:0.55;}
	.st36{fill:url(#SVGID_1_);}
	.st37{fill:#E8EAEF;}
	.st38{fill:none;stroke:#475577;stroke-width:2.5755;stroke-miterlimit:10;}
</style>
<g id="BACKGROUND" class="st0">
	<rect class="st1" width="750" height="500"/>
</g>
<g id="OBJECTS">
	<g>
		<g>
			<g>
				<path class="st2" d="M380.9,125.4H228c-1.8,0-3.2-1.4-3.2-3.2V32.3c0-1.8,1.4-3.2,3.2-3.2h152.9c1.8,0,3.2,1.4,3.2,3.2v89.8
					C384.1,123.9,382.7,125.4,380.9,125.4z"/>
				<line class="st2" x1="224.8" y1="46.6" x2="384.1" y2="46.6"/>
				<circle class="st2" cx="235.1" cy="37.9" r="2.5"/>
				<path class="st2" d="M248.1,37.9c0,1.4-1.1,2.5-2.5,2.5c-1.4,0-2.5-1.1-2.5-2.5c0-1.4,1.1-2.5,2.5-2.5
					C246.9,35.4,248.1,36.5,248.1,37.9z"/>
				<path class="st2" d="M258.6,37.9c0,1.4-1.1,2.5-2.5,2.5c-1.4,0-2.5-1.1-2.5-2.5c0-1.4,1.1-2.5,2.5-2.5
					C257.4,35.4,258.6,36.5,258.6,37.9z"/>
			</g>
			<g>
				<g>
					<g>
						<path class="st3" d="M139.7,135.4h40.6c2.8,0,5.1-2.3,5.1-5.1V89.7c0-2.8-2.3-5.1-5.1-5.1h-40.6c-2.8,0-5.1,2.3-5.1,5.1v40.6
							C134.6,133.1,136.9,135.4,139.7,135.4z"/>
					</g>
					<g>
						<circle class="st4" cx="160" cy="110" r="14.6"/>
						<line class="st4" x1="169.8" y1="99.7" x2="149.3" y2="120.3"/>
					</g>
				</g>
			</g>
			<path class="st5" d="M522.7,123.9l-10.6-10.9H349.8c-7.6,0-13.8-6.2-13.8-13.8V14.8C336,7.2,342.2,1,349.8,1h163.1
				c7.6,0,13.8,6.2,13.8,13.8v107.5C526.6,124.3,524.1,125.3,522.7,123.9z"/>
			<g>
				<g>
					<path class="st6" d="M401.3,75.2h-7v12.3h-16.9V75.2h-25.3V62.6L378.5,24h15.8v38.4h7V75.2z M377.4,62.4V55
						c0-1.4,0.1-3.3,0.2-5.6c0.1-2.4,0.2-3.6,0.2-3.7h-0.5c-1,2.2-2.1,4.3-3.3,6.2l-7,10.5H377.4z"/>
					<path class="st6" d="M454.1,55.8c0,11.2-1.9,19.4-5.6,24.7c-3.8,5.2-9.5,7.8-17.3,7.8c-7.6,0-13.3-2.7-17.1-8.2
						c-3.8-5.5-5.8-13.6-5.8-24.3c0-11.3,1.9-19.6,5.6-24.8c3.8-5.3,9.5-7.9,17.3-7.9c7.5,0,13.3,2.7,17.1,8.2
						C452.2,36.8,454.1,45,454.1,55.8z M425.4,55.8c0,7.2,0.4,12.1,1.3,14.8c0.9,2.7,2.4,4,4.5,4c2.1,0,3.7-1.4,4.5-4.2
						c0.9-2.8,1.3-7.7,1.3-14.7c0-7-0.4-12-1.3-14.8c-0.9-2.8-2.4-4.2-4.5-4.2c-2.1,0-3.6,1.4-4.5,4.1
						C425.8,43.6,425.4,48.6,425.4,55.8z"/>
					<path class="st6" d="M510.5,75.2h-7v12.3h-16.9V75.2h-25.3V62.6L487.7,24h15.8v38.4h7V75.2z M486.6,62.4V55
						c0-1.4,0.1-3.3,0.2-5.6c0.1-2.4,0.2-3.6,0.2-3.7h-0.5c-1,2.2-2.1,4.3-3.3,6.2l-7,10.5H486.6z"/>
				</g>
			</g>
			<g>
				<g>
					<g>
						<path class="st3" d="M674.2,283.5h40.6c2.8,0,5.1-2.3,5.1-5.1v-40.6c0-2.8-2.3-5.1-5.1-5.1h-40.6c-2.8,0-5.1,2.3-5.1,5.1v40.6
							C669.1,281.3,671.4,283.5,674.2,283.5z"/>
					</g>
					<g>
						<g>
							<path class="st7" d="M710.9,272.4c-0.2,0.1-0.4,0.1-0.6,0.1l-31.6,0c-0.7,0-1.3-0.4-1.6-0.9c-0.3-0.6-0.3-1.3,0-1.9
								l15.8-27.3c0.3-0.6,0.9-0.9,1.6-0.9c0.7,0,1.3,0.4,1.6,0.9l15.8,27.3c0.3,0.6,0.3,1.3,0,1.9
								C711.7,272,711.3,272.3,710.9,272.4z M679.6,270.2l29.8,0l-14.9-25.8L679.6,270.2z"/>
						</g>
						<path class="st7" d="M694.5,264.7L694.5,264.7c-0.6,0-1.1-0.5-1.1-1.1l-0.6-10.8c0-1,0.8-1.8,1.8-1.8l0,0c1,0,1.8,0.8,1.8,1.8
							l-0.6,10.8C695.6,264.3,695.1,264.7,694.5,264.7z"/>
						<path class="st7" d="M695.7,267.3c0,0.6-0.5,1.1-1.1,1.1c-0.6,0-1.1-0.5-1.1-1.1c0-0.6,0.5-1.1,1.1-1.1
							C695.1,266.2,695.7,266.7,695.7,267.3z"/>
					</g>
				</g>
			</g>
			<path class="st8" d="M28.4,192.7c0,1.6-1.3,2.9-2.9,2.9c-1.6,0-2.9-1.3-2.9-2.9c0-1.6,1.3-2.9,2.9-2.9
				C27.2,189.8,28.4,191.1,28.4,192.7z"/>
			<path class="st8" d="M510.5,345.6c0,1.6-1.3,2.9-2.9,2.9c-1.6,0-2.9-1.3-2.9-2.9c0-1.6,1.3-2.9,2.9-2.9
				C509.3,342.8,510.5,344.1,510.5,345.6z"/>
			<path class="st8" d="M707.7,110c0,1.6-1.3,2.9-2.9,2.9c-1.6,0-2.9-1.3-2.9-2.9c0-1.6,1.3-2.9,2.9-2.9
				C706.4,107.1,707.7,108.4,707.7,110z"/>
			<path class="st8" d="M552.8,21.3c0,1.6-1.3,2.9-2.9,2.9c-1.6,0-2.9-1.3-2.9-2.9c0-1.6,1.3-2.9,2.9-2.9
				C551.6,18.4,552.8,19.7,552.8,21.3z"/>
			<g>
				<line class="st8" x1="702" y1="203.9" x2="702" y2="212.7"/>
				<line class="st8" x1="706.4" y1="208.3" x2="697.6" y2="208.3"/>
			</g>
			<g>
				<line class="st8" x1="469.7" y1="375" x2="469.7" y2="383.9"/>
				<line class="st8" x1="474.1" y1="379.5" x2="465.3" y2="379.5"/>
			</g>
			<g>
				<line class="st8" x1="281.8" y1="4.9" x2="281.8" y2="13.8"/>
				<line class="st8" x1="286.2" y1="9.3" x2="277.3" y2="9.3"/>
			</g>
			<g>
				<line class="st8" x1="82.9" y1="90.8" x2="82.9" y2="99.6"/>
				<line class="st8" x1="87.3" y1="95.2" x2="78.4" y2="95.2"/>
			</g>
			<g>
				<line class="st8" x1="68.4" y1="295.3" x2="68.4" y2="304.2"/>
				<line class="st8" x1="72.8" y1="299.8" x2="64" y2="299.8"/>
			</g>
			<g>
				<line class="st8" x1="572.1" y1="55.2" x2="572.1" y2="64.1"/>
				<line class="st8" x1="576.5" y1="59.6" x2="567.7" y2="59.6"/>
			</g>
			<path class="st2" d="M134.5,244.8H45.6c-1.6,0-2.8-1.3-2.8-2.8l0,0c0-1.6,1.3-2.8,2.8-2.8h88.9c1.6,0,2.8,1.3,2.8,2.8l0,0
				C137.3,243.5,136.1,244.8,134.5,244.8z"/>
			<path class="st2" d="M658.1,173.7h-88.9c-1.6,0-2.8-1.3-2.8-2.8l0,0c0-1.6,1.3-2.8,2.8-2.8h88.9c1.6,0,2.8,1.3,2.8,2.8l0,0
				C660.9,172.5,659.6,173.7,658.1,173.7z"/>
			<path class="st7" d="M671.1,192.7h-32.9c-0.8,0-1.4-0.6-1.4-1.4l0,0c0-0.8,0.6-1.4,1.4-1.4h32.9c0.8,0,1.4,0.6,1.4,1.4l0,0
				C672.5,192,671.9,192.7,671.1,192.7z"/>
			<path class="st7" d="M584.1,125.6h-32.9c-0.8,0-1.4-0.6-1.4-1.4l0,0c0-0.8,0.6-1.4,1.4-1.4h32.9c0.8,0,1.4,0.6,1.4,1.4l0,0
				C585.5,125,584.9,125.6,584.1,125.6z"/>
			<path class="st7" d="M101.5,219.9H76.3c-0.8,0-1.4-0.6-1.4-1.4l0,0c0-0.8,0.6-1.4,1.4-1.4h25.1c0.8,0,1.4,0.6,1.4,1.4l0,0
				C102.9,219.3,102.2,219.9,101.5,219.9z"/>
			<g>
				<path class="st3" d="M607.9,95.8h29.4c2,0,3.7-1.7,3.7-3.7V62.7c0-2-1.7-3.7-3.7-3.7h-29.4c-2,0-3.7,1.7-3.7,3.7v29.4
					C604.2,94.1,605.9,95.8,607.9,95.8z"/>
				<g>
					<g>
						<path class="st7" d="M627.8,75.9l-0.6,3.2h3.5v2.8h-4l-1,5.5h-3l1.1-5.5h-3.9l-1,5.5h-2.9l1-5.5h-3.2V79h3.8l0.6-3.2h-3.4V73
							h3.9l1-5.5h3l-1,5.5h3.9l1.1-5.5h2.9l-1.1,5.5h3.3v2.8H627.8z M620.3,79h3.9l0.6-3.2h-3.9L620.3,79z"/>
					</g>
				</g>
			</g>
		</g>
		<g>
			<g>
				<path class="st9" d="M313.1,350l-25.8-169.3H171l27.9,179.4c1.9,12.2,12,20.7,24.5,20.7h195.5l1.4-16.4h-90.3
					C321.4,364.4,314.4,358.5,313.1,350z"/>
				<path class="st10" d="M203.1,350L178.2,187c-0.6-3.7-3.6-6.3-7.4-6.3h-0.2c-5.3,0-9.6,5-8.8,10.1L188,360.1
					c1.9,12.2,12,20.7,24.5,20.7h125.9l1.4-16.4H220C211.4,364.4,204.3,358.5,203.1,350z"/>
				<g>
					<g>
						<g>
							<line class="st11" x1="281.8" y1="380.9" x2="281.8" y2="473.3"/>
						</g>
						<g>
							<g>
								<path class="st11" d="M230,481.4L230,481.4c0-4.5,3.7-8.2,8.2-8.2h87.3c4.5,0,8.2,3.7,8.2,8.2v0"/>
							</g>
							<g>
								<path class="st11" d="M272.8,481.4L272.8,481.4c0-4.5,3.7-8.2,8.2-8.2"/>
							</g>
							<g>
								<g>
									<path class="st10" d="M238.2,489.7c0,4.6-3.7,8.2-8.2,8.2s-8.2-3.7-8.2-8.2c0-4.6,3.7-8.2,8.2-8.2S238.2,485.1,238.2,489.7
										z"/>
								</g>
								<g class="st12">
									<path class="st13" d="M233,489.7c0,1.7-1.4,3-3,3s-3-1.4-3-3c0-1.7,1.4-3,3-3S233,488,233,489.7z"/>
								</g>
							</g>
							<g>
								<path class="st10" d="M281.1,489.7c0,4.6-3.7,8.2-8.2,8.2c-4.6,0-8.2-3.7-8.2-8.2c0-4.6,3.7-8.2,8.2-8.2
									C277.4,481.4,281.1,485.1,281.1,489.7z"/>
							</g>
							<g class="st12">
								<path class="st13" d="M275.9,489.7c0,1.7-1.4,3-3,3c-1.7,0-3-1.4-3-3c0-1.7,1.4-3,3-3C274.5,486.7,275.9,488,275.9,489.7z"
									/>
							</g>
							<g>
								<g>
									<path class="st10" d="M341.8,489.7c0,4.6-3.7,8.2-8.2,8.2c-4.6,0-8.2-3.7-8.2-8.2c0-4.6,3.7-8.2,8.2-8.2
										C338.1,481.4,341.8,485.1,341.8,489.7z"/>
								</g>
								<g class="st12">
									<path class="st13" d="M336.6,489.7c0,1.7-1.4,3-3,3c-1.7,0-3-1.4-3-3c0-1.7,1.4-3,3-3C335.3,486.7,336.6,488,336.6,489.7z"
										/>
								</g>
							</g>
						</g>
					</g>
				</g>
			</g>
			<g>
				<g>
					<path class="st14" d="M372.7,198.9l29.5-44l9.1,1.9c-7,23.5-11.6,32.8-11.6,32.8"/>
					<path class="st14" d="M406.6,164l4.7-7.3c0,0,8.7-2,11.9-3.6c3.2-1.6,5.3-4.5,6.2-6.9c0.7-1.9,0.4-7.3-0.4-7.4
						c-1.9-0.2-5.6,6.8-7.4,7.2c-1.8,0.4-7.4,0-10.6,0.4c-5.3,0.7-7.5,5.6-7.5,5.6l-4.8,8.7"/>
					<polyline class="st15" points="391.9,167.7 397.1,160.2 410.5,166.2 406.2,177.6 					"/>
					<path class="st16" d="M284.4,152c0,0,21.8-10,41,7.1c19.2,17.1,32.2,33,39.3,38.1l29-33.3l16.2,7.6
						c-4.3,24.1-16.2,62.6-45.5,66.6c-31.7,4.3-78.2-34.8-78.2-34.8"/>
					<line class="st17" x1="355.3" y1="208.3" x2="364.7" y2="197.2"/>
				</g>
				<path class="st18" d="M401.6,484l-2.4,9.4c-0.6,2.3,1.1,4.5,3.5,4.5h28.5c1.7,0,3.1-1.4,3.1-3.1l0,0c0-1.4-0.9-2.5-2.2-3
					l-19.5-7.9"/>
				<path class="st14" d="M385.2,337c-4.6,47.8,16.4,147,16.4,147s5,6,11,0c0,0,5.1-94.5,10.4-137"/>
				<path class="st19" d="M317.2,281l32.7,17.2v0.3c0,0,66.8-4.5,76.9,19.4c15.8,37.3,18.5,158.7,18.5,158.7h-48.9
					c0,0-18.2-102-24.4-108.2c-6.2-6.2-31.9-5.8-79-5.8c-53,0-27.1-68.3-7.4-74.1"/>
				<path class="st20" d="M399.8,476.6c0,0-14.5-105.2-25.2-112.9c-13-9.4-74.6-3.3-74.6-3.3"/>
				<path class="st18" d="M299.1,484l-2.4,9.4c-0.6,2.3,1.1,4.5,3.5,4.5h28.5c1.7,0,3.1-1.4,3.1-3.1l0,0c0-1.4-0.9-2.5-2.2-3
					l-19.5-7.9"/>
				<path class="st14" d="M303.9,337c-4.6,47.8-4.7,147-4.7,147s5,6,11,0c0,0,17.2-94.5,22.5-137"/>
				<g>
					<path class="st21" d="M259.5,296c0,0,85.8,1.4,97.1,27.4c13.8,32-9,153.2-9,153.2h-51.7V368.2c0-2.1-1.6-4-3.7-3.9
						c-7.2,0.2-23.2,0.2-43.4,0.2c-53,0-27.1-82.4-7.4-88.3"/>
					<path class="st20" d="M259.5,296c0,0,85.8,1.4,97.1,27.4c3.7,8.7,5.7,23.4,4.7,41"/>
					<path class="st22" d="M303,476.6c0,0,0.5-108.8-2-114.7c-3.5-8.1-15.3-4.1-42.8-4.1c-53,0-31.4-75.8-11.7-81.7"/>
					<path class="st22" d="M226.5,309.3c0,0,27.2,0.7,31.3-3.5c4.1-4.1,0-22.8,0-22.8"/>
					<path class="st23" d="M225.8,312.9c0,0,31,0.7,35.7-3.5c4.7-4.1,0-22.8,0-22.8"/>
				</g>
				<g>
					<path class="st16" d="M220.6,182.7c0,0-6.5,115.8,3.3,115.8c9.9,0,119.5-0.3,126-0.3c6.4,0-8.6-99-30.3-119.9
						c0,0-32.1-34.9-46.3-31.5C259.2,150.1,220.6,182.7,220.6,182.7z"/>
					<line class="st17" x1="342.9" y1="235.4" x2="329.3" y2="179.6"/>
				</g>
				<g>
					<path class="st14" d="M165.1,203.7l-29.5-44l-9.1,1.9c7,23.5,11.6,32.8,11.6,32.8"/>
					<path class="st14" d="M131.2,168.8l-4.7-7.3c0,0-8.7-2-11.9-3.6c-3.2-1.6-5.3-4.5-6.2-6.9c-0.7-1.9-0.4-7.3,0.4-7.4
						c1.9-0.2,5.6,6.8,7.4,7.2c1.8,0.4,7.4,0,10.6,0.4c5.3,0.7,7.5,5.6,7.5,5.6l4.8,8.7"/>
					<polyline class="st15" points="145.8,172.5 140.7,165 127.3,171 131.5,182.4 					"/>
					<path class="st16" d="M261.1,152.7c0,0-21.6-15.3-43.8,3.5c-20.8,17.6-34.6,53-39.2,53c-3.2,0-23.2-25.5-35.1-41.1l-14.2,7.6
						c8.9,27.3,28.4,73.7,57.6,73.7c22.9,0,69.8-53.6,69.8-53.6"/>
					<line class="st17" x1="218.7" y1="232.3" x2="253.5" y2="203.3"/>
				</g>
				<g>
					<polyline class="st24" points="263.2,155.4 283.9,177.6 286.6,152 					"/>
					<path class="st14" d="M279.8,133l5.8,12.8c0,0,2.3,7.3-7.4,10.6c-10.7,3.6-17.2-3.7-17.2-3.7l-1.5-20"/>
					<path class="st25" d="M260.5,145.4c0,0,7.7,9.6,17.7,11l-7.3,10.9C265,164,257.8,151,257.8,151L260.5,145.4z"/>
					<path class="st25" d="M285,144.1c0,0-1.2,6.9-6.8,12.4l8.3,6.3c1.9-4.7,1.7-12.1,1.7-12.1L285,144.1z"/>
					<path class="st14" d="M288.5,112.4c0,0,5.5,21.1-2.8,26.4c-8.3,5.3-22.6-2.8-23.5-5.4c-0.8-2.6-4.6-25.1,0.8-26.8
						C272.6,103.5,285.7,103.4,288.5,112.4z"/>
					<g>
						<g>
							<path class="st18" d="M288.3,119.2c0.1,0.6-0.2,1.2-0.8,1.3c-0.6,0.1-1.2-0.2-1.3-0.8c-0.1-0.6,0.2-1.2,0.8-1.3
								C287.6,118.3,288.1,118.7,288.3,119.2z"/>
							<g>
								<path class="st18" d="M286.4,113c0.4,0.1,2,0.2,1.6,1c-0.2,0.4-0.7,0.3-1,0.3c-0.3,0-0.7-0.1-1,0c0.1,0.1,0.2,0.2,0.2,0.3
									c0.1,0.2-0.7,0.3-0.8,0.3c-0.8,0-1.8-0.1-2.7,0.5C283.4,113.2,285.9,112.9,286.4,113z"/>
							</g>
							<path class="st18" d="M275,122.1c0,0.6,0.5,1,1.1,1c0.6,0,1-0.5,1-1.1c0-0.6-0.5-1-1.1-1C275.5,121,275,121.6,275,122.1z"/>
							<g>
								<path class="st18" d="M271.9,117.9c-0.8,0.4-1.4,1-1.2,1.6c0.1,0.5,0.6,0.4,1,0.1c0.5-0.4,1.1-0.7,1.8-0.9
									c-0.3,0.2-0.4,0.6-0.4,1c2-0.2,3.8-1.9,4-3.9c0,0.1-1.3,0.9-1.5,1C274.2,117.3,273,117.3,271.9,117.9z"/>
							</g>
						</g>
						<path class="st26" d="M282.9,120.5c0,0,2.9,7.4,1.9,8c-1,0.6-4.7,0.6-4.7,0.6"/>
					</g>
					<path class="st26" d="M283,140c0,0-8.4,3.2-15.7-2.6"/>
					<path class="st26" d="M278.3,135.1c0,0,0.7-3.3,6.1-3.3"/>
					<g>
						<path class="st18" d="M293.1,101.1c-0.1-1-0.2-2.1-0.9-2.8c-0.8-0.8-2.1-1-3.2-1c-4,0-8.1,1.3-11.4,3.6
							c0.9-0.8,1.8-1.6,2.7-2.3c0.7-0.6,2.3-1.6,1.5-2.7c-0.7-1-2.6-0.4-3.6-0.5c-4.6-0.1-9.1,1.6-13.3,3.2
							c-2.1,0.8-4.2,1.6-6.1,2.8c-1.9,1.2-3.6,2.8-4.5,4.9c-0.8,1.8-1,3.8-0.9,5.8c0,3.5,0.6,7,1.1,10.5c0.6,3.8,1.5,11.3,6.6,11.8
							c1,0.1,2.1,0.2,2.9-0.4c0.8-0.6,1.1-1.6,1.2-2.6c0.2-1.6,0.1-3.2-0.3-4.8c1,0.5,1.9,1.4,2.9,1.2c0.4-0.1,0.7-0.2,0.8-0.6
							c0.1-0.2,0.1-0.4,0-0.7c-0.4-3.6-0.6-7.3-0.9-10.9c5.2-1.1,10.5-2.1,15.8-2.9c2.3-0.4,4.8-0.7,6.6-2.3
							C293,108.3,293.4,104.5,293.1,101.1z"/>
					</g>
					<g>
						<path class="st14" d="M266.1,127.9c-0.9-2.1-2.4-4.7-4.8-3.3c-0.8,0.5-1.3,1.6-1.6,2.7c-1.1,3.5,1.5,9,4.9,8.5
							c1.7-0.2,2.6-2.3,3.3-3.9"/>
					</g>
				</g>
			</g>
		</g>
		<g>
			<g>
				<path class="st27" d="M581.8,358c0-11.5,4.9-22.9,13.2-30.7c4.1-3.9,9-6.9,14.3-8.8c3-1.1,17.3-2.2,17.3-2.2s-1.7,10.9-4.5,16.4
					C615.5,345.5,602.4,356.3,581.8,358"/>
			</g>
			<g>
				<path class="st28" d="M623.9,390.6c5.2-6.4,12.7-10.8,20.7-12.3c8.1-1.5,16.6,0,23.7,4.1c0.2,0.1,0.5,0.3,0.5,0.6
					c0.1,0.3-0.1,0.6-0.4,0.8c-6.7,7.5-17,11.5-26.9,10.5C637.3,393.9,628.1,392,623.9,390.6"/>
			</g>
			<g>
				<path class="st27" d="M635.5,373.2c0-10,3.3-19,9.2-24.9c5.9-5.9,14.2-8.6,23.2-7.5c0.3,0,0.6,0.1,0.9,0.4
					c0.3,0.3,0.3,0.8,0.3,1.2c-0.5,12-6.5,22-15.8,26C649.2,370.1,640,372.6,635.5,373.2"/>
			</g>
			<g>
				<path class="st28" d="M651,355.3c4-6.4,8.8-12.2,14.3-17.3c2.2-2.1,4.6-4,7.2-5.4c8.6-4.6,19.2-3.2,28.5-0.1
					c-3.7,7-8.5,13.8-15.6,17.4c-3.1,1.6-6.6,2.4-10,3.2C668.7,354.5,657.9,354.4,651,355.3"/>
			</g>
			<g>
				<path class="st27" d="M646.1,338.6c-17.2-9-19.8-27.9-20.2-34.8c-0.3-4.4,0-9.2,3.6-12.4C650.9,298.9,656.3,313.4,646.1,338.6"
					/>
			</g>
			<g>
				<path class="st27" d="M571.8,335.9c1.3-9.2,2.6-19-1.6-27.3c-1.5-3-3.6-5.6-5.9-8c-5.6-5.8-12.9-10.5-21-10.6
					c-1.4,8.6,0.3,17.7,4.8,25.1c4.5,7.4,11.8,13.2,20.1,15.9"/>
			</g>
			<g>
				<path class="st28" d="M621.9,395.8c-9.6-3.2-17.8-10.5-22-19.7c-4.2-9.2-4.5-20.2-0.7-29.5c0.2-0.4,0.4-0.9,0.8-1
					c0.4-0.1,0.8,0.1,1.2,0.3C616.1,354.4,626.3,379.3,621.9,395.8"/>
			</g>
			<g>
				<path class="st28" d="M581.5,345.2c-2.8-8-2.6-17,0.4-24.9c3-7.9,8.9-14.7,16.4-18.8c3-1.7,6.3-2.9,9-5.1
					c0.9,4,1.5,8.1,1.8,12.2c0.3,4.1,0.3,8.2-0.8,12.2c-2.8,10.2-12.2,17.1-21.6,21.9"/>
			</g>
			<g>
				<path class="st28" d="M569.1,343.7c-15.5,1.9-34.5-4.4-42.8-18.9C552.7,311.3,569.1,331.8,569.1,343.7"/>
			</g>
			<g>
				<path class="st28" d="M578.1,378.2c-3.5-11.9-12.6-21.6-23.6-25.2c-11-3.6-23.6-0.8-32.5,7c-0.4,0.3-0.8,0.7-0.7,1.3
					c0,0.3,0.2,0.6,0.4,0.8c5.9,8.6,15.4,13.6,25,15.7c9.7,2.1,19.6,1.6,29.4,0.9"/>
			</g>
			<g>
				<g>
					<path class="st29" d="M558.2,314.8c6,5.9,10.4,13.2,13.7,20.9c3.6,8.2,6.1,16.9,8.4,25.5c2.4,9.3,4.3,18.6,5.8,28.1
						c1.5,9.5,2.7,19,3.6,28.5c1,9.5,1.7,19.1,2.6,28.6c0.1,1.2,0.2,2.4,0.4,3.6c0,0.3,0.6,0.4,0.6,0c-0.4-9.7-1.3-19.3-2.2-29
						c-0.9-9.6-2-19.1-3.5-28.6c-1.5-9.5-3.3-19-5.6-28.4c-2.2-8.8-4.8-17.6-8.2-26c-3.2-7.7-7.3-15.2-13-21.2
						c-0.7-0.8-1.5-1.5-2.2-2.2C558.3,314.4,558,314.7,558.2,314.8L558.2,314.8z"/>
				</g>
			</g>
			<g>
				<g>
					<path class="st29" d="M586.7,388.2c-2.2-3.6-5.1-6.9-8.4-9.6c-3.4-2.8-7.2-5-11.2-7c-8.6-4.2-17.8-7.2-27.2-8.7
						c-5.2-0.8-10.7-1.4-16-0.9c-0.3,0-0.3,0.5,0,0.5c4.7,0.2,9.4,0.4,14.1,1c4.6,0.6,9.1,1.6,13.6,2.9c4.6,1.3,9.1,3,13.4,5
						c4,1.9,7.9,3.9,11.4,6.6c3.9,2.9,7.1,6.5,9.8,10.4C586.4,388.8,586.9,388.5,586.7,388.2L586.7,388.2z"/>
				</g>
			</g>
			<g>
				<g>
					<path class="st29" d="M582,365.6c0-3.7-0.3-7.3-0.3-11c-0.1-3.5-0.1-7,0.2-10.4c0.6-6.5,2.3-13.1,5.1-19.1
						c1.6-3.4,3.6-6.4,5.7-9.4c0.1-0.2-0.2-0.4-0.3-0.3c-2.2,2.3-4,5.3-5.5,8.1c-1.5,2.9-2.7,6-3.6,9.2c-1.9,6.6-2.5,13.4-2.4,20.2
						c0.1,4.2,0.3,8.4,0.8,12.6C581.7,365.8,582,365.8,582,365.6L582,365.6z"/>
				</g>
			</g>
			<g>
				<g>
					<path class="st29" d="M546.1,329.7c4.7,0.5,9,3.1,12.8,5.8c4.5,3.2,8.7,6.9,12.7,10.7c2.1,1.9,4.2,4,6.4,5.8
						c0.2,0.2,0.5-0.1,0.3-0.3c-1.9-1.9-3.8-3.6-5.8-5.4c-2.1-1.9-4.2-3.8-6.3-5.6c-4.1-3.5-8.4-6.9-13.2-9.1c-2.2-1-4.5-1.8-6.9-2
						C546,329.6,546,329.7,546.1,329.7L546.1,329.7z"/>
				</g>
			</g>
			<g>
				<g>
					<path class="st29" d="M615.9,418.5c1.4-7.2,3.1-14.3,5.9-21.2c2.7-6.9,6.2-13.4,10.3-19.5c4.1-6.2,8.9-11.9,14.2-17
						c5.3-5.1,11.1-9.7,17.4-13.6c6.2-3.9,12.9-7.1,19.9-9.6c0.9-0.3,1.7-0.6,2.6-0.9c0.4-0.1,0.2-0.7-0.2-0.6
						c-3.6,0.9-7.1,2.4-10.5,3.9c-3.4,1.5-6.7,3.2-9.9,5.1c-6.4,3.8-12.4,8.3-17.9,13.3c-5.4,5-10.4,10.6-14.7,16.7
						c-4.3,6.1-8,12.6-10.9,19.5c-2.9,6.8-5.1,14-6.4,21.3c-0.1,0.9-0.3,1.7-0.4,2.6C615.4,418.7,615.8,418.8,615.9,418.5
						L615.9,418.5z"/>
				</g>
			</g>
			<g>
				<g>
					<path class="st29" d="M636.8,306c3.4,7.1,6,14.7,7.5,22.5c1.6,8.1,1.9,16.5,0.3,24.6c-0.9,4.6-2.6,9-4.6,13.2
						c-0.2,0.4,0.4,0.7,0.6,0.3c2.2-3.6,3.6-7.7,4.6-11.7c0.9-4,1.4-8.2,1.4-12.4c0-8.3-1.6-16.7-4.2-24.5
						c-1.4-4.2-3.1-8.3-5.1-12.3C637.1,305.4,636.7,305.7,636.8,306L636.8,306z"/>
				</g>
			</g>
			<path id="XMLID_547_" class="st30" d="M648.6,406v15.1c0,59.8-15.8,76.8-15.8,76.8h-48.8c0,0-15.8-17-15.8-76.8V406H648.6z"/>
		</g>
		<g>
			<g>
				<line class="st11" x1="124.9" y1="497.9" x2="166.3" y2="299.6"/>
				<line class="st11" x1="207.6" y1="497.9" x2="166.3" y2="299.6"/>
			</g>
			<g>
				<line class="st11" x1="542.6" y1="497.9" x2="584" y2="299.6"/>
				<line class="st11" x1="625.3" y1="497.9" x2="584" y2="299.6"/>
			</g>
			<rect x="126.3" y="287.8" class="st31" width="494" height="11.9"/>
			<g>
				<path class="st9" d="M596.4,265.2H421.9c-3.1,0-5.5-2.8-4.9-5.9L437,146.5c0.6-3.6,3.7-6.2,7.4-6.2H619c3.1,0,5.5,2.8,4.9,5.9
					L603.8,259C603.2,262.6,600.1,265.2,596.4,265.2z"/>
				<path class="st7" d="M600.5,265.2H425.9c-3.1,0-5.5-2.8-4.9-5.9l20.1-112.8c0.6-3.6,3.7-6.2,7.4-6.2H623c3.1,0,5.5,2.8,4.9,5.9
					L607.9,259C607.2,262.6,604.1,265.2,600.5,265.2z"/>
				<path class="st32" d="M568.4,265.2H467.6c-1.8,0-3.2-1.6-2.8-3.4l11.6-65.2c0.4-2.1,2.2-3.6,4.3-3.6h100.8
					c1.8,0,3.2,1.6,2.8,3.4l-11.6,65.2C572.3,263.7,570.5,265.2,568.4,265.2z"/>
				<path class="st33" d="M570.8,265.2H470c-1.8,0-3.2-1.6-2.8-3.4l11.6-65.2c0.4-2.1,2.2-3.6,4.3-3.6h100.8c1.8,0,3.2,1.6,2.8,3.4
					l-11.6,65.2C574.7,263.7,572.9,265.2,570.8,265.2z"/>
				<rect x="507.5" y="226.8" class="st13" width="40.9" height="38.3"/>
				<path class="st9" d="M546.1,226.8h-38.6v11l10.5,43.7H559L546.1,226.8z M536.2,269.9c-4.6,0-9.4-5.3-10.8-11.9
					c-1.4-6.6,1.2-11.9,5.8-11.9c4.6,0,9.4,5.3,10.8,11.9C543.4,264.5,540.8,269.9,536.2,269.9z"/>
				<path class="st9" d="M485,281.6h91.7v6.2h-97.9l0,0C478.7,284.3,481.5,281.6,485,281.6z"/>
				<rect x="503.3" y="281.6" class="st7" width="73.3" height="6.2"/>
				<path class="st7" d="M548.5,226.8h-40.9l12.9,54.7h40.9L548.5,226.8z M538.4,269.9c-4.6,0-9.4-5.3-10.8-11.9
					c-1.4-6.6,1.2-11.9,5.8-11.9c4.6,0,9.4,5.3,10.8,11.9C545.6,264.5,543,269.9,538.4,269.9z"/>
				<g class="st34">
					<polygon class="st13" points="452.9,151.4 450.4,165 452.9,165 455.3,151.4 					"/>
					<polygon class="st13" points="459.9,151.4 457.5,165 459.9,165 462.3,151.4 					"/>
					<polygon class="st13" points="466.9,151.4 464.5,165 466.9,165 469.3,151.4 					"/>
					<polygon class="st13" points="473.9,151.4 471.5,165 473.9,165 476.3,151.4 					"/>
					<polygon class="st13" points="480.9,151.4 478.5,165 480.9,165 483.4,151.4 					"/>
				</g>
				<g class="st34">
					<polygon class="st13" points="545,151.4 542.5,165 545,165 547.4,151.4 					"/>
					<polygon class="st13" points="552.3,151.4 549.9,165 552.3,165 554.8,151.4 					"/>
					<polygon class="st13" points="559.7,151.4 557.3,165 559.7,165 562.1,151.4 					"/>
					<polygon class="st13" points="567.1,151.4 564.7,165 567.1,165 569.5,151.4 					"/>
					<polygon class="st13" points="574.5,151.4 572,165 574.5,165 576.9,151.4 					"/>
					<polygon class="st13" points="581.8,151.4 579.4,165 581.8,165 584.3,151.4 					"/>
					<polygon class="st13" points="589.2,151.4 586.8,165 589.2,165 591.6,151.4 					"/>
					<polygon class="st13" points="596.6,151.4 594.2,165 596.6,165 599,151.4 					"/>
					<polygon class="st13" points="604,151.4 601.5,165 604,165 606.4,151.4 					"/>
					<polygon class="st13" points="611.3,151.4 608.9,165 611.3,165 613.8,151.4 					"/>
				</g>
			</g>
			<g>
				<g class="st35">
					<linearGradient id="SVGID_1_" gradientUnits="userSpaceOnUse" x1="281.7273" y1="256.8606" x2="281.7273" y2="221.313">
						<stop  offset="0" style="stop-color:#FFFFFF;stop-opacity:0.1"/>
						<stop  offset="1" style="stop-color:#FFFFFF;stop-opacity:0.4"/>
					</linearGradient>
					<path class="st36" d="M265.4,256.9c0,0,1.1-0.2,1.6-0.9c1-1.3-0.6-2.7-1.7-3.4c-1.3-0.8-3.1-1.1-3.8-2.8
						c-0.7-1.8,0.5-3.9,2-4.9c1.3-0.8,2.8-1.3,4.2-1.8c1.6-0.6,3.2-1.6,4.1-3c1.2-1.9,0.9-4.3,1.1-6.4c0.6-8.2,9-12.3,16.1-12.5
						c3.5-0.1,8.9,1.2,11.3,3.9c0.8,0.9,1.4,2,1.6,3.2c0.3,1.9-0.4,3.6-1.6,5c-1.2,1.4-2.9,2.2-4.2,3.5c-1.4,1.3-0.4,2.7-0.7,4.2
						c-0.3,1.7-1.5,2.4-3,3.3c-3.1,1.8-6.8,2.2-10.3,3.1c-1.1,0.3-2.1,0.7-3,1.3c-1.1,0.9-1.7,2.2-2.6,3.4c-1.5,2.1-3.9,3.6-6.4,4.1
						"/>
				</g>
				<g>
					<g>
						<path class="st37" d="M285.1,277.5h-6.7v-3.2h6.7c2.2,0,3.9-1.8,3.9-3.9v-5.5c0-2.2-1.8-3.9-3.9-3.9h-6.7v-3.2h6.7
							c3.9,0,7.1,3.2,7.1,7.1v5.5C292.2,274.4,289,277.5,285.1,277.5z"/>
					</g>
				</g>
				<path class="st37" d="M277.3,286h-14.8c-3.4,0-6.1-2.7-6.1-6.1v-26.6h27.1v26.6C283.4,283.2,280.7,286,277.3,286z"/>
				<path class="st33" d="M251.9,281.4c0,0,0.3,6.4,10.2,6.4h15.5c9.9,0,10.2-6.4,10.2-6.4H251.9z"/>
			</g>
			<g id="XMLID_30_">
				<g id="XMLID_96_">
					<g>
						<rect id="XMLID_105_" x="326.3" y="285.2" class="st9" width="143.3" height="2.5"/>
						<rect id="XMLID_104_" x="331.2" y="283.2" class="st9" width="10.3" height="2.1"/>
						<rect id="XMLID_103_" x="346.8" y="283.2" class="st9" width="10.3" height="2.1"/>
						<rect id="XMLID_102_" x="362.3" y="283.2" class="st9" width="10.3" height="2.1"/>
						<rect id="XMLID_101_" x="377.8" y="283.2" class="st9" width="10.3" height="2.1"/>
						<rect id="XMLID_100_" x="393.4" y="283.2" class="st9" width="10.3" height="2.1"/>
						<rect id="XMLID_99_" x="408.9" y="283.2" class="st9" width="10.3" height="2.1"/>
						<rect id="XMLID_98_" x="424.5" y="283.2" class="st9" width="10.3" height="2.1"/>
						<rect id="XMLID_97_" x="440" y="283.2" class="st9" width="10.3" height="2.1"/>
						<rect id="XMLID_94_" x="455.6" y="283.2" class="st9" width="10.3" height="2.1"/>
					</g>
				</g>
				<g id="XMLID_51_">
					<g>
						<rect id="XMLID_93_" x="328.2" y="285.2" class="st7" width="143.3" height="2.5"/>
						<rect id="XMLID_92_" x="333.1" y="283.2" class="st7" width="10.3" height="2.1"/>
						<rect id="XMLID_91_" x="348.6" y="283.2" class="st7" width="10.3" height="2.1"/>
						<rect id="XMLID_90_" x="364.2" y="283.2" class="st7" width="10.3" height="2.1"/>
						<rect id="XMLID_89_" x="379.7" y="283.2" class="st7" width="10.3" height="2.1"/>
						<rect id="XMLID_88_" x="395.3" y="283.2" class="st7" width="10.3" height="2.1"/>
						<rect id="XMLID_87_" x="410.8" y="283.2" class="st7" width="10.3" height="2.1"/>
						<rect id="XMLID_86_" x="426.4" y="283.2" class="st7" width="10.3" height="2.1"/>
						<rect id="XMLID_85_" x="441.9" y="283.2" class="st7" width="10.3" height="2.1"/>
						<rect id="XMLID_84_" x="457.4" y="283.2" class="st7" width="10.3" height="2.1"/>
					</g>
				</g>
			</g>
		</g>
		<g>
			<g>
				<path class="st27" d="M124.3,383.9c1.8-7.1,1-14.8-2.2-21.3c-3.2-6.6-8.7-11.9-15.4-14.9c-2.7-1.2-5.6-2-8.1-3.7
					c-0.5,3.5-0.7,7.1-0.7,10.6c0,3.5,0.4,7.1,1.6,10.4c3.1,8.5,11.7,13.7,20.1,17.1"/>
			</g>
			<g>
				<g>
					<path class="st29" d="M125.3,406.7c0.1-3.1,0-6.2,0-9.3c0-3.3-0.1-6.7-0.4-10c-0.2-2.9-0.5-5.8-1.2-8.6
						c-0.9-3.4-2.2-6.7-3.8-9.9c-1.8-3.5-4.1-7.1-7.1-9.7c-0.2-0.2-0.5,0.1-0.3,0.3c1.2,1.4,2.3,2.8,3.4,4.2c1,1.4,1.9,2.9,2.7,4.4
						c1.7,3.2,3,6.5,4,10c1.7,5.9,1.8,12.2,1.9,18.2c0.1,3.5,0.1,6.9,0.4,10.4C125,406.9,125.3,406.9,125.3,406.7L125.3,406.7z"/>
				</g>
			</g>
			<g>
				<path class="st27" d="M104.3,428.3c-1.2-9.8-6.7-18.9-14.6-24.7c-3.9-2.9-8.5-4.9-13.2-6c-2.7-0.6-15,0-15,0s2.6,9.1,5.6,13.5
					C74.2,421.4,86.6,429.2,104.3,428.3"/>
			</g>
			<g>
				<path class="st28" d="M93.5,396.8c-0.3-5.9-1.4-11.8-3.2-17.4c-0.7-2.3-1.6-4.5-2.8-6.5c-4.1-6.5-11.7-9.5-19-10.8
					c-0.1,6.2,0.6,12.8,4.1,17.9c1.5,2.3,3.5,4.2,5.5,6C81.9,389.6,89.2,393.6,93.5,396.8"/>
			</g>
			<g>
				<path class="st28" d="M135.1,375.3c-1.1-7.9-2.2-16.3,1.4-23.4c1.3-2.5,3.1-4.8,5.1-6.8c4.8-5,11.1-9.1,18-9.1
					c1.2,7.4-0.3,15.2-4.1,21.6C151.6,363.9,142.2,373,135.1,375.3"/>
			</g>
			<g>
				<path class="st28" d="M122.4,421.1c7.3,1.5,15.3-0.1,21.4-4.4s10.4-11.2,11.4-18.6c0-0.3,0.1-0.7-0.1-0.9
					c-0.2-0.2-0.6-0.3-0.9-0.3C141.5,396.8,125.8,408.9,122.4,421.1"/>
			</g>
			<g>
				<path class="st28" d="M96.4,392.6c10.4-5.9,17.1-17.6,17.3-30.4c-7.5-0.4-13.2,4.2-16.5,8.2C92.7,375.9,92.3,385.7,96.4,392.6"
					/>
			</g>
			<g>
				<path class="st28" d="M104,413.2c-2.8-6.9-1.9-15.2,2.3-21.4s11.5-10.1,19-10.2c0.3,0,0.7,0,0.8,0.3c0.1,0.2,0.1,0.3,0.1,0.5
					c0.3,6.4-2.5,12.7-6.6,17.6c-4,5-9.2,8.9-14.5,12.6"/>
			</g>
			<g>
				<g>
					<path class="st29" d="M146.5,357c-5.3,5-9.2,11.2-12.1,17.8c-3.1,7-5.4,14.4-7.4,21.8c-2.1,8-3.8,16.1-5.1,24.3
						c-1.3,8.1-2.3,16.3-3.2,24.5c-0.8,8.3-1.5,16.6-2,24.8c-0.1,1-0.1,2-0.2,3.1c0,0.4,0.5,0.3,0.6,0c1-8.1,1.5-16.3,2.3-24.5
						c0.8-8.2,1.7-16.4,2.9-24.5c1.2-8.1,2.7-16.2,4.7-24.2c1.8-7.5,4-15.1,6.8-22.3c2.7-6.7,6.1-13.3,11-18.7
						c0.6-0.7,1.2-1.3,1.9-2C147,357.1,146.7,356.8,146.5,357L146.5,357z"/>
				</g>
			</g>
			<g>
				<g>
					<path class="st29" d="M103.9,424.3c0-1.4-0.1-2.9-0.1-4.3c0-1.6,0.2-3.3,0.4-4.9c0.2-1.6,0.5-3.1,0.9-4.6
						c0.3-1.4,0.9-2.8,1.1-4.2c0-0.3-0.3-0.3-0.4-0.1c-0.8,1.1-1.1,2.7-1.4,4.1c-0.4,1.6-0.7,3.2-0.9,4.8c-0.2,1.6-0.3,3.3-0.4,4.9
						c0,1.4-0.1,3,0.3,4.4C103.4,424.7,103.9,424.6,103.9,424.3L103.9,424.3z"/>
				</g>
			</g>
			<g>
				<g>
					<path class="st29" d="M104.8,371c-3.1,2.7-5,6.7-6.3,10.6c-1.6,4.7-2.3,9.8-2.1,14.8c0.1,2.8,0.4,5.7,1.4,8.3
						c0.1,0.2,0.5,0.2,0.4-0.1c-0.6-2.4-1-4.8-1.2-7.3c-0.2-2.5-0.1-5,0.2-7.5c0.5-4.6,1.8-9.3,3.9-13.5
						C102.1,374.4,103.3,372.6,104.8,371C105,371,104.9,370.9,104.8,371L104.8,371z"/>
				</g>
			</g>
			<g>
				<g>
					<path class="st29" d="M107.9,460.5c0.2-5.5-0.3-11.1-0.8-16.6c-0.6-5.7-1.4-11.4-2.6-17c-2.4-11.5-6.1-22.8-11.8-33.1
						c-1.6-2.9-3.3-5.6-5.2-8.3c-1.9-2.6-3.9-5.2-6.2-7.4c-0.3-0.3-0.7,0.1-0.4,0.4c1.8,2.3,3.7,4.4,5.5,6.8
						c1.7,2.3,3.3,4.8,4.7,7.2c2.9,5,5.4,10.3,7.4,15.7c4,10.9,6.5,22.3,7.8,33.8c0.4,3.1,0.6,6.2,0.8,9.3c0.2,3,0.3,6.1,0.4,9.2
						C107.4,460.9,107.8,460.9,107.9,460.5L107.9,460.5z"/>
				</g>
			</g>
			<path id="XMLID_5_" class="st30" d="M150.5,435.2v10.3c0,40.8-13.5,52.4-13.5,52.4H95c0,0-13.5-11.6-13.5-52.4v-10.3H150.5z"/>
		</g>
		<line class="st38" x1="58.5" y1="497.9" x2="715.8" y2="497.9"/>
	</g>
</g>
<g id="DESIGNED_BY_FREEPIK" class="st0">
</g>
</svg>
