<svg xmlns="http://www.w3.org/2000/svg" viewBox="0 0 231.03 69.92"><defs><style>.cls-1{fill:#009d21;}</style></defs><g id="Layer_2" data-name="Layer 2"><g id="Layer_1-2" data-name="Layer 1"><path class="cls-1" d="M9.31,61.72,5,61.42a5.26,5.26,0,0,1-4.94-5C0,50.91.15,45.36,0,39.81c0-2.38.69-4.18,2.67-5.32a11.73,11.73,0,0,1,3.43-.91,10.63,10.63,0,0,1,1.88,0c.11-2.37.19-4.6.35-6.83A61.52,61.52,0,0,1,9,20.07a8.54,8.54,0,0,1,7.44-7.25A62.05,62.05,0,0,1,19.79,6,13.21,13.21,0,0,1,29,.24c5.62-.95,10.38,1,14.12,5.16a11.23,11.23,0,0,1,2.78,6.14,1.32,1.32,0,0,0,1.35,1.31c2.57.36,4.18,2.1,5.64,4,1.58,2.09,1.63,4.62,1.74,7.06.15,3.12,0,6.26,0,9.42,1.7.19,3,.25,4.29.51a5.7,5.7,0,0,1,4.27,5.35q0,6.2,0,12.37c0,1.4.12,2.8.1,4.19a5.81,5.81,0,0,1-5.72,5.74,19.08,19.08,0,0,0-2.83,0,1.19,1.19,0,0,0-.89.64c-.72,2.85-4.61,5.75-7.37,5.9-4.72.26-9.43.66-14.14.86-2.21.09-4.43-.14-6.65-.23-2.49-.11-5-.19-7.48-.36-3.33-.23-6.2-1.39-8-4.39A17.4,17.4,0,0,1,9.31,61.72Zm42.11-25c-.36-6.18-.55-10.43-.87-14.66-.25-3.26-1.67-5.34-5.3-5.66-2.08-.19-4.15-.4-6.23-.54a102.24,102.24,0,0,0-21.27.68c-3,.42-5.06,2.39-5.27,5.24-.14,2-.07,4-.11,6-.11,6.75-.26,13.5-.33,20.25,0,2.07.14,4.15.27,6.21s.23,4.23.49,6.33a3.87,3.87,0,0,0,1,1.86c1.45,1.67,3.46,2,5.54,2.15,2.85.18,5.7.34,8.55.51a50.24,50.24,0,0,0,6,.28c4-.27,8.08-.82,12.12-1.18a4,4,0,0,0,3.87-3,31,31,0,0,0,1-6.56C51.15,48,51.28,41.42,51.42,36.72ZM21.27,12H42c-1.3-5-5-8.45-12-8.12-1.83.08-3.74,1.48-5.35,2.63A7.94,7.94,0,0,0,21.27,12ZM8,37.32c-.52,0-1.09,0-1.65,0-1.65,0-2.28.63-2.38,2.33-.06,1.28,0,2.57,0,3.85q0,6.27,0,12.55A1.58,1.58,0,0,0,5.58,57.7c.93.1,1.88.1,2.95.15C8.34,51,8.14,44.24,8,37.32ZM54.72,57.7h2.05c1.76,0,2.53-.73,2.54-2.49,0-4.92,0-9.83,0-14.74,0-2.8-1.38-3.78-4-2.94C55.11,44.24,54.92,50.9,54.72,57.7Z"/><path class="cls-1" d="M43.32,37.4a8.87,8.87,0,0,1-.06,2.54,3,3,0,0,1-1.39,1.84,1.74,1.74,0,0,1-2.31-1.46c-.14-.93.07-2.46-.39-2.69a8.07,8.07,0,0,0-3.47-.36c-5.78,0-11.55.09-17.32.07a3.51,3.51,0,0,1-2.15-.84c-.89-.82-.2-2.48,1.19-2.65a54.37,54.37,0,0,1,5.86-.23c2.83,0,5.67,0,8.5,0l13.58.06a1.67,1.67,0,0,1,1.82,1.63,1.56,1.56,0,0,1-1.42,1.94C45.06,37.37,44.34,37.34,43.32,37.4Z"/><path class="cls-1" d="M85.85,60.4A8.63,8.63,0,0,1,79.41,58c-1.56-1.57-2.34-3.84-2.34-6.78v-14H72.28V32.42h4.79v-9.2h6v9.2H91v4.84h-7.9V50.62A5.36,5.36,0,0,0,84,54a3.16,3.16,0,0,0,2.67,1.17,8.07,8.07,0,0,0,2-.29,8.85,8.85,0,0,0,2-.8L92,58.58a10,10,0,0,1-2.78,1.33A11.38,11.38,0,0,1,85.85,60.4Z"/><path class="cls-1" d="M95.06,59.62V32.42h5.46l.26,4.48a8.43,8.43,0,0,1,2.88-3.57A7.45,7.45,0,0,1,108,32.06a12.22,12.22,0,0,1,1.51.1,4.5,4.5,0,0,1,1.3.37l-.67,5.82a5.25,5.25,0,0,0-1.2-.28,8.75,8.75,0,0,0-1.25-.08,6.07,6.07,0,0,0-4.89,2.08A8.69,8.69,0,0,0,101,45.84V59.62Z"/><path class="cls-1" d="M120.12,24.83a3.48,3.48,0,0,1-.49,1.82A3.77,3.77,0,0,1,118.3,28a3.62,3.62,0,0,1-3.64,0,3.77,3.77,0,0,1-1.33-1.33,3.63,3.63,0,0,1,0-3.64,3.82,3.82,0,0,1,1.33-1.32,3.56,3.56,0,0,1,3.64,0A3.82,3.82,0,0,1,119.63,23,3.5,3.5,0,0,1,120.12,24.83Zm-6.6,34.79V32.42h6v27.2Z"/><path class="cls-1" d="M124.23,69.92V32.42h5.46l.26,4.37A10.7,10.7,0,0,1,133.8,33a10.5,10.5,0,0,1,5.35-1.38,11.59,11.59,0,0,1,5,1.1,12.39,12.39,0,0,1,4,3,14.12,14.12,0,0,1,2.68,4.53,16,16,0,0,1,1,5.61,16.21,16.21,0,0,1-1,5.72,14.59,14.59,0,0,1-2.75,4.63A12.57,12.57,0,0,1,144,59.31a12,12,0,0,1-5.12,1.09,10.72,10.72,0,0,1-4.94-1.14A10.06,10.06,0,0,1,130.21,56V69.92ZM137.9,55a7.12,7.12,0,0,0,4-1.17,8,8,0,0,0,2.78-3.2,10.13,10.13,0,0,0,1-4.62,10,10,0,0,0-1-4.61,8.16,8.16,0,0,0-2.78-3.17,7.44,7.44,0,0,0-8,0,8.08,8.08,0,0,0-2.78,3.17,10,10,0,0,0-1,4.61,10.13,10.13,0,0,0,1,4.62,8,8,0,0,0,2.78,3.2A7.08,7.08,0,0,0,137.9,55Z"/><path class="cls-1" d="M155.38,69.92V32.42h5.46l.26,4.37A10.75,10.75,0,0,1,164.94,33a10.54,10.54,0,0,1,5.36-1.38,11.63,11.63,0,0,1,5,1.1,12.49,12.49,0,0,1,4,3A14.3,14.3,0,0,1,182,40.28a16,16,0,0,1,1,5.61,16.21,16.21,0,0,1-1,5.72,14.43,14.43,0,0,1-2.76,4.63,12.53,12.53,0,0,1-4.13,3.07A12.07,12.07,0,0,1,170,60.4a10.69,10.69,0,0,1-4.94-1.14A10.06,10.06,0,0,1,161.36,56V69.92ZM169.05,55a7.12,7.12,0,0,0,4-1.17,8.12,8.12,0,0,0,2.78-3.2,10.26,10.26,0,0,0,1-4.62,10.16,10.16,0,0,0-1-4.61,8.24,8.24,0,0,0-2.78-3.17,7.44,7.44,0,0,0-8,0,8.08,8.08,0,0,0-2.78,3.17,10,10,0,0,0-1,4.61,10.13,10.13,0,0,0,1,4.62,8,8,0,0,0,2.78,3.2A7.08,7.08,0,0,0,169.05,55Z"/><path class="cls-1" d="M199.42,60.4a14.1,14.1,0,0,1-5.54-1.07,13.07,13.07,0,0,1-4.39-3,13.35,13.35,0,0,1-2.89-4.55,16.07,16.07,0,0,1-1-5.79,15.57,15.57,0,0,1,1-5.67,14.39,14.39,0,0,1,2.81-4.55,12.6,12.6,0,0,1,4.24-3,12.8,12.8,0,0,1,5.3-1.1,13.08,13.08,0,0,1,5.23,1,12.05,12.05,0,0,1,4.1,2.88A12.73,12.73,0,0,1,211,40a16.41,16.41,0,0,1,.94,5.69v1.77H191.77a10.39,10.39,0,0,0,1.28,4.14,7.1,7.1,0,0,0,2.63,2.67,7.24,7.24,0,0,0,3.74.94,7.45,7.45,0,0,0,6.65-3.8l5.26,2a10.81,10.81,0,0,1-2.73,3.72,12.6,12.6,0,0,1-4.16,2.42A15.15,15.15,0,0,1,199.42,60.4ZM199,36.48a6.39,6.39,0,0,0-3.25.83,7.39,7.39,0,0,0-2.42,2.34,9.4,9.4,0,0,0-1.35,3.54h13.73a10,10,0,0,0-1.2-3.54,6.48,6.48,0,0,0-2.31-2.34A6.31,6.31,0,0,0,199,36.48Z"/><path class="cls-1" d="M215.28,59.62V32.42h5.46L221,36.9a8.43,8.43,0,0,1,2.88-3.57,7.46,7.46,0,0,1,4.35-1.27,12.06,12.06,0,0,1,1.5.1,4.5,4.5,0,0,1,1.3.37l-.67,5.82a5.25,5.25,0,0,0-1.2-.28,8.65,8.65,0,0,0-1.25-.08A6,6,0,0,0,223,40.07a8.64,8.64,0,0,0-1.77,5.77V59.62Z"/></g></g></svg>