<svg xmlns="http://www.w3.org/2000/svg" viewBox="0 0 267.27 88.49"><defs><style>.cls-1,.cls-2,.cls-4{fill:#009d21;}.cls-2{font-size:52px;font-family:STYuanti-TC-Light, Yuanti TC;font-weight:300;}.cls-3{fill:none;stroke:#ffff;stroke-miterlimit:10;stroke-width:0.75px;}.cls-4{font-size:14px;font-family:Peyda-Regular, Peyda;}</style></defs><g id="Layer_2" data-name="Layer 2"><g id="Layer_1-2" data-name="Layer 1"><path class="cls-1" d="M11.6,76.85l-5.43-.37A6.54,6.54,0,0,1,0,70.29c-.08-6.9.17-13.81,0-20.71C0,46.61.89,44.36,3.36,43a14.39,14.39,0,0,1,4.26-1.14,13,13,0,0,1,2.34,0c.14-2.95.23-5.73.43-8.5A73.8,73.8,0,0,1,11.2,25a10.62,10.62,0,0,1,9.26-9c1.46-3,2.53-6,4.19-8.5A16.4,16.4,0,0,1,36.15.3c7-1.18,12.93,1.19,17.59,6.43a13.89,13.89,0,0,1,3.46,7.63A1.66,1.66,0,0,0,58.88,16c3.2.45,5.21,2.62,7,5,2,2.6,2,5.75,2.18,8.79.19,3.89,0,7.79,0,11.73,2.12.24,3.76.31,5.35.63a7.11,7.11,0,0,1,5.31,6.67q-.06,7.7,0,15.4c0,1.74.14,3.48.12,5.22,0,3.83-3.4,7.32-7.12,7.14a24.44,24.44,0,0,0-3.53,0,1.48,1.48,0,0,0-1.11.8c-.89,3.55-5.74,7.15-9.18,7.34-5.87.33-11.73.82-17.6,1.07-2.75.12-5.52-.17-8.28-.29-3.11-.13-6.22-.22-9.32-.44-4.15-.29-7.72-1.73-10-5.47A20.49,20.49,0,0,1,11.6,76.85ZM64,45.73c-.44-7.7-.68-13-1.08-18.26-.3-4.06-2.08-6.65-6.6-7-2.58-.23-5.16-.5-7.75-.68a128.11,128.11,0,0,0-26.48.85c-3.71.53-6.31,3-6.56,6.53-.18,2.48-.1,5-.14,7.46C15.26,43,15.07,51.39,15,59.8c0,2.57.18,5.16.33,7.73s.29,5.27.62,7.88a4.77,4.77,0,0,0,1.24,2.31c1.81,2.08,4.31,2.53,6.9,2.69L34.73,81a58.39,58.39,0,0,0,7.46.35c5-.33,10.06-1,15.09-1.46,2.45-.22,4.23-1.46,4.82-3.69a38.24,38.24,0,0,0,1.23-8.17C63.69,59.82,63.85,51.57,64,45.73ZM26.49,15H52.28c-1.61-6.23-6.21-10.53-15-10.12C35,5,32.66,6.71,30.65,8.15A9.86,9.86,0,0,0,26.49,15ZM9.9,46.47c-.65,0-1.35,0-2.05,0-2.06.06-2.85.78-3,2.91-.09,1.59,0,3.19,0,4.78q0,7.81,0,15.64a2,2,0,0,0,2,2c1.16.13,2.33.12,3.67.19C10.38,63.56,10.14,55.09,9.9,46.47ZM68.14,71.85h2.55c2.2,0,3.15-.91,3.16-3.11,0-6.11,0-12.23,0-18.35,0-3.49-1.71-4.7-5-3.65C68.63,55.09,68.39,63.38,68.14,71.85Z"/><path class="cls-1" d="M53.94,46.57a11.07,11.07,0,0,1-.07,3.17A3.82,3.82,0,0,1,52.13,52a2.17,2.17,0,0,1-2.87-1.82c-.18-1.16.09-3.07-.48-3.35-1.23-.61-2.86-.46-4.33-.46-7.19,0-14.38.13-21.56.09a4.3,4.3,0,0,1-2.68-1c-1.11-1-.25-3.09,1.48-3.3A65.62,65.62,0,0,1,29,41.86c3.53,0,7.06,0,10.59,0q8.46,0,16.91.08a2.07,2.07,0,0,1,2.26,2A1.94,1.94,0,0,1,57,46.38,28.85,28.85,0,0,1,53.94,46.57Z"/><text class="cls-2" transform="translate(96.75 61.36)">Tripper</text><line class="cls-3" x1="90.81" y1="25.07" x2="90.81" y2="83.15"/><text class="cls-4" transform="translate(102.75 82.63)">Just pack your bag</text></g></g></svg>